<?xml version="1.0" encoding="UTF-8"?>
<svg id="Camada_2" data-name="Camada 2" xmlns="http://www.w3.org/2000/svg" viewBox="0 0 1623.91 652.43">
  <defs>
    <style>
      .cls-1 {
        fill: #802bcb;
      }

      .cls-2 {
        fill: #c864a9;
      }

      .cls-3 {
        fill: #451da5;
      }

      .cls-4 {
        fill: #b53db8;
      }

      .cls-5 {
        fill: #5e23bb;
      }
    </style>
  </defs>
  <g id="Layer_1" data-name="Layer 1">
    <g>
      <path class="cls-3" d="m14.45,122.11C4.81,113.44,0,102.17,0,88.3s4.81-24.56,14.45-33.23c9.63-8.67,21.76-13,36.41-13s26.87,4.33,36.7,13c9.82,8.67,14.74,19.75,14.74,33.23s-4.82,25.14-14.45,33.81c-9.64,8.67-21.96,13-36.99,13s-26.78-4.33-36.41-13Zm-6.94,52.88h86.69v303.43H7.51V174.99Z"/>
      <path class="cls-1" d="m562.06,451.26c-21.77-22.73-32.66-54.13-32.66-94.21v-198.69l87.27-69.48v86.12h112.12v72.25h-112.12v109.24c0,16.57,4.04,29.57,12.14,39.01,8.09,9.45,19.26,14.16,33.52,14.16,9.63,0,17.82-1.34,24.56-4.04,6.74-2.69,13.58-6.74,20.52-12.14l39.3,53.75c-12.71,12.33-27.16,21.77-43.35,28.32-16.18,6.55-33.14,9.82-50.86,9.82-38.53,0-68.69-11.36-90.45-34.1Z"/>
      <path class="cls-4" d="m999.87,439.12c-28.52,30.83-61.84,46.24-99.99,46.24s-64.64-12.04-84.09-36.12c-19.46-24.07-29.19-57.89-29.19-101.43v-172.81l86.69,70.68v91.15c0,25.05,3.95,43.26,11.85,54.62,7.89,11.37,21.86,17.05,41.9,17.05,11.94,0,23.31-3.27,34.1-9.83,10.78-6.55,20.23-15.79,28.32-27.74v-195.93h87.27v303.43"/>
      <path class="cls-5" d="m247.94,214.3c28.52-30.83,61.84-46.24,99.99-46.24s64.64,12.04,84.09,36.12c19.46,24.07,29.19,57.89,29.19,101.43v172.81l-86.69-70.68v-91.15c0-25.05-3.95-43.26-11.85-54.62-7.89-11.37-21.86-17.05-41.9-17.05-11.94,0-23.31,3.27-34.1,9.83-10.78,6.55-20.23,15.79-28.32,27.74v195.93h-87.27V174.99"/>
      <g>
        <g>
          <path class="cls-1" d="m1324.45,61.06c-7.06-.71-13.37,4.44-14.08,11.5-.71,7.06,4.44,13.37,11.5,14.08,7.06.71,13.37-4.44,14.08-11.5.71-7.06-4.44-13.37-11.5-14.08Z"/>
          <path class="cls-1" d="m1370.09,69.73c-6.83-1.93-13.94,2.05-15.86,8.88-1.93,6.83,2.05,13.94,8.88,15.86,6.83,1.93,13.94-2.05,15.86-8.88,1.93-6.83-2.05-13.94-8.88-15.86Z"/>
          <path class="cls-1" d="m1413.52,86.2c-6.39-3.09-14.08-.4-17.17,5.99-3.09,6.39-.4,14.08,5.99,17.17,6.39,3.09,14.08.4,17.17-5.99,3.09-6.39.4-14.08-5.99-17.17Z"/>
          <path class="cls-1" d="m1453.44,109.96c-5.76-4.15-13.8-2.84-17.95,2.92-4.15,5.76-2.84,13.8,2.92,17.95,5.76,4.15,13.8,2.84,17.95-2.92,4.15-5.76,2.84-13.8-2.92-17.94Z"/>
          <path class="cls-1" d="m1488.63,140.29c-4.95-5.09-13.09-5.19-18.18-.24-5.09,4.95-5.19,13.09-.24,18.18,4.95,5.09,13.09,5.19,18.18.24,5.09-4.95,5.19-13.09.24-18.18Z"/>
          <path class="cls-1" d="m1518.01,176.27c-3.99-5.87-11.99-7.39-17.86-3.39-5.87,3.99-7.39,11.99-3.39,17.86,3.99,5.87,11.99,7.39,17.86,3.39,5.87-3.99,7.39-11.99,3.39-17.86Z"/>
          <path class="cls-1" d="m1540.71,216.8c-2.91-6.47-10.53-9.36-17-6.44-6.47,2.91-9.36,10.53-6.44,17,2.91,6.47,10.53,9.36,17,6.44,6.47-2.91,9.36-10.53,6.44-17Z"/>
          <path class="cls-1" d="m1556.01,260.66c-1.75-6.88-8.74-11.04-15.62-9.3-6.88,1.75-11.05,8.74-9.3,15.62,1.75,6.88,8.74,11.04,15.62,9.3,6.88-1.75,11.05-8.74,9.3-15.62Z"/>
          <path class="cls-1" d="m1563.47,306.52c-.53-7.08-6.69-12.4-13.77-11.87-7.08.52-12.4,6.69-11.87,13.77.52,7.08,6.69,12.4,13.77,11.87,7.08-.52,12.4-6.69,11.87-13.77Z"/>
          <path class="cls-1" d="m1562.85,352.97c.71-7.06-4.44-13.37-11.5-14.08-7.06-.71-13.37,4.44-14.08,11.5-.71,7.06,4.44,13.37,11.5,14.08,7.06.71,13.37-4.44,14.08-11.5Z"/>
          <path class="cls-1" d="m1554.18,398.61c1.93-6.83-2.05-13.94-8.88-15.86-6.83-1.93-13.94,2.05-15.86,8.88-1.93,6.83,2.05,13.94,8.88,15.86,6.83,1.93,13.94-2.05,15.86-8.88Z"/>
          <path class="cls-1" d="m1537.71,442.04c3.09-6.39.4-14.08-5.99-17.17-6.39-3.09-14.08-.4-17.17,5.99-3.09,6.39-.4,14.08,5.99,17.17,6.39,3.09,14.08.4,17.17-5.99Z"/>
          <path class="cls-1" d="m1513.95,481.96c4.15-5.76,2.84-13.8-2.92-17.94-5.76-4.15-13.8-2.84-17.94,2.92-4.15,5.76-2.84,13.8,2.92,17.95,5.76,4.15,13.8,2.84,17.95-2.92Z"/>
          <path class="cls-1" d="m1483.62,517.15c5.09-4.95,5.19-13.09.24-18.18-4.95-5.09-13.09-5.19-18.18-.24-5.09,4.95-5.19,13.09-.24,18.18s13.09,5.19,18.18.24Z"/>
          <path class="cls-1" d="m1447.64,546.53c5.87-3.99,7.39-11.99,3.39-17.86-3.99-5.87-11.99-7.39-17.86-3.39-5.87,3.99-7.39,11.99-3.39,17.86,3.99,5.87,11.99,7.39,17.86,3.39Z"/>
          <path class="cls-1" d="m1407.11,569.22c6.47-2.91,9.36-10.53,6.44-17-2.91-6.47-10.53-9.36-17-6.44-6.47,2.91-9.36,10.53-6.44,17,2.91,6.47,10.53,9.36,17,6.44Z"/>
          <path class="cls-1" d="m1363.25,584.53c6.88-1.75,11.05-8.74,9.3-15.62-1.75-6.88-8.74-11.04-15.62-9.3-6.88,1.75-11.05,8.74-9.3,15.62,1.75,6.88,8.74,11.04,15.62,9.3Z"/>
          <path class="cls-1" d="m1317.39,591.99c7.08-.52,12.4-6.69,11.87-13.77-.52-7.08-6.69-12.4-13.77-11.87-7.08.52-12.4,6.69-11.87,13.77.52,7.08,6.69,12.4,13.77,11.87Z"/>
          <path class="cls-1" d="m1270.94,591.37c7.06.71,13.37-4.44,14.08-11.5.71-7.06-4.44-13.37-11.5-14.08-7.06-.71-13.37,4.44-14.08,11.5-.71,7.06,4.44,13.37,11.5,14.08Z"/>
          <path class="cls-1" d="m1225.31,582.7c6.83,1.93,13.94-2.05,15.86-8.88,1.93-6.83-2.05-13.94-8.88-15.86-6.83-1.93-13.94,2.05-15.86,8.88-1.93,6.83,2.05,13.94,8.88,15.86Z"/>
          <path class="cls-1" d="m1181.87,566.23c6.39,3.09,14.08.4,17.17-5.99,3.09-6.39.4-14.08-5.99-17.17-6.39-3.09-14.08-.4-17.17,5.99-3.09,6.39-.4,14.08,5.99,17.17Z"/>
          <path class="cls-1" d="m1141.95,542.47c5.76,4.15,13.8,2.84,17.95-2.92,4.15-5.76,2.84-13.8-2.92-17.95s-13.8-2.84-17.95,2.92c-4.15,5.76-2.84,13.8,2.92,17.94Z"/>
          <path class="cls-1" d="m1106.76,512.14c4.95,5.09,13.09,5.19,18.18.24,5.09-4.95,5.19-13.09.24-18.18-4.95-5.09-13.09-5.19-18.18-.24-5.09,4.95-5.19,13.09-.24,18.18Z"/>
          <path class="cls-1" d="m1111.77,135.28c-5.09,4.95-5.19,13.09-.24,18.18,4.95,5.09,13.09,5.19,18.18.24s5.19-13.09.24-18.18-13.09-5.19-18.18-.24Z"/>
          <path class="cls-1" d="m1147.75,105.9c-5.87,3.99-7.39,11.99-3.39,17.86,3.99,5.87,11.99,7.39,17.86,3.39,5.87-3.99,7.39-11.99,3.39-17.86-3.99-5.87-11.99-7.39-17.86-3.39Z"/>
          <path class="cls-1" d="m1188.29,83.21c-6.47,2.91-9.36,10.53-6.44,17,2.91,6.47,10.53,9.36,17,6.44,6.47-2.91,9.36-10.53,6.44-17-2.92-6.47-10.53-9.36-17-6.44Z"/>
          <path class="cls-1" d="m1232.15,67.9c-6.88,1.75-11.05,8.74-9.3,15.62,1.75,6.88,8.74,11.04,15.62,9.3,6.88-1.75,11.05-8.74,9.3-15.62-1.75-6.88-8.74-11.04-15.62-9.3Z"/>
          <path class="cls-1" d="m1278,60.44c-7.08.52-12.4,6.69-11.87,13.77.52,7.08,6.69,12.4,13.77,11.87,7.08-.52,12.4-6.69,11.87-13.77-.52-7.08-6.69-12.4-13.77-11.87Z"/>
        </g>
        <g>
          <path class="cls-4" d="m1339.4,108.79c-4.41-.85-8.67,2.04-9.52,6.46-.85,4.41,2.04,8.67,6.46,9.52,4.41.85,8.67-2.04,9.52-6.46.85-4.41-2.04-8.67-6.46-9.52Z"/>
          <path class="cls-4" d="m1376.52,119.34c-4.2-1.6-8.9.51-10.5,4.7-1.6,4.2.51,8.9,4.7,10.5,4.2,1.6,8.9-.51,10.5-4.7,1.6-4.2-.51-8.9-4.7-10.5Z"/>
          <path class="cls-4" d="m1411.25,136.17c-3.86-2.3-8.85-1.05-11.15,2.81-2.3,3.86-1.05,8.85,2.81,11.15,3.86,2.3,8.85,1.05,11.15-2.81,2.3-3.86,1.05-8.85-2.81-11.15Z"/>
          <path class="cls-4" d="m1442.53,158.77c-3.4-2.94-8.53-2.57-11.47.83-2.94,3.4-2.57,8.53.83,11.47,3.4,2.94,8.53,2.57,11.47-.83,2.94-3.4,2.57-8.53-.83-11.47Z"/>
          <path class="cls-4" d="m1469.4,186.47c-2.84-3.48-7.96-4.01-11.44-1.17-3.48,2.84-4.01,7.96-1.17,11.44,2.84,3.48,7.96,4.01,11.44,1.17,3.48-2.84,4.01-7.96,1.17-11.44Z"/>
          <path class="cls-4" d="m1491.06,218.4c-2.19-3.92-7.14-5.33-11.06-3.14-3.92,2.19-5.33,7.14-3.14,11.06,2.19,3.92,7.14,5.33,11.06,3.14,3.92-2.19,5.33-7.14,3.14-11.06Z"/>
          <path class="cls-4" d="m1506.84,253.62c-1.47-4.24-6.11-6.49-10.35-5.02-4.24,1.47-6.49,6.11-5.02,10.35,1.47,4.24,6.11,6.49,10.35,5.02,4.24-1.47,6.49-6.11,5.02-10.35Z"/>
          <path class="cls-4" d="m1516.27,291.04c-.71-4.44-4.89-7.45-9.32-6.74-4.43.71-7.45,4.89-6.74,9.32.71,4.44,4.89,7.45,9.32,6.74,4.43-.71,7.45-4.89,6.74-9.32Z"/>
          <path class="cls-4" d="m1519.06,329.53c.07-4.49-3.52-8.19-8.01-8.25-4.49-.07-8.19,3.52-8.25,8.01-.07,4.49,3.52,8.19,8.01,8.25,4.49.07,8.19-3.52,8.25-8.01Z"/>
          <path class="cls-4" d="m1515.12,367.92c.85-4.41-2.04-8.67-6.46-9.52-4.41-.85-8.67,2.04-9.52,6.46-.85,4.41,2.04,8.67,6.46,9.52,4.41.85,8.67-2.04,9.52-6.46Z"/>
          <path class="cls-4" d="m1504.58,405.04c1.6-4.2-.51-8.9-4.7-10.5-4.2-1.6-8.9.51-10.5,4.7-1.6,4.2.51,8.9,4.7,10.5,4.2,1.6,8.9-.51,10.5-4.7Z"/>
          <path class="cls-4" d="m1487.75,439.77c2.3-3.86,1.05-8.85-2.81-11.15-3.86-2.3-8.85-1.05-11.15,2.81-2.3,3.86-1.05,8.85,2.81,11.15,3.86,2.3,8.85,1.05,11.15-2.81Z"/>
          <path class="cls-4" d="m1465.14,471.04c2.94-3.4,2.57-8.53-.83-11.47-3.4-2.94-8.53-2.57-11.47.83-2.94,3.4-2.57,8.53.83,11.47,3.4,2.94,8.53,2.57,11.47-.83Z"/>
          <path class="cls-4" d="m1437.45,497.92c3.48-2.84,4.01-7.96,1.17-11.44-2.84-3.48-7.96-4.01-11.44-1.17-3.48,2.84-4.01,7.96-1.17,11.44,2.84,3.48,7.96,4.01,11.44,1.17Z"/>
          <path class="cls-4" d="m1405.51,519.58c3.92-2.19,5.33-7.14,3.14-11.06-2.19-3.92-7.14-5.33-11.06-3.14-3.92,2.19-5.33,7.14-3.14,11.06,2.19,3.92,7.14,5.33,11.06,3.14Z"/>
          <path class="cls-4" d="m1370.29,535.36c4.24-1.47,6.49-6.11,5.02-10.35-1.47-4.24-6.11-6.49-10.35-5.02-4.24,1.47-6.49,6.11-5.02,10.35,1.47,4.24,6.11,6.49,10.35,5.02Z"/>
          <path class="cls-4" d="m1294.38,547.58c4.49.07,8.19-3.52,8.25-8.01.07-4.49-3.52-8.19-8.01-8.25-4.49-.07-8.19,3.52-8.25,8.01-.07,4.49,3.52,8.19,8.01,8.25Z"/>
          <path class="cls-4" d="m1255.99,543.64c4.41.85,8.67-2.04,9.52-6.46.85-4.41-2.04-8.67-6.46-9.52-4.41-.85-8.67,2.04-9.52,6.46-.85,4.41,2.04,8.67,6.46,9.52Z"/>
          <path class="cls-4" d="m1218.87,533.1c4.2,1.6,8.9-.51,10.5-4.7,1.6-4.2-.51-8.9-4.7-10.5-4.2-1.6-8.9.51-10.5,4.7-1.6,4.2.51,8.9,4.7,10.5Z"/>
          <path class="cls-4" d="m1184.14,516.26c3.86,2.3,8.85,1.05,11.15-2.81,2.3-3.86,1.05-8.85-2.81-11.15-3.86-2.3-8.85-1.05-11.15,2.81-2.3,3.86-1.05,8.85,2.81,11.15Z"/>
          <path class="cls-4" d="m1152.87,493.66c3.4,2.94,8.53,2.57,11.47-.83,2.94-3.4,2.57-8.53-.83-11.47-3.4-2.94-8.53-2.57-11.47.83-2.94,3.4-2.57,8.53.83,11.47Z"/>
          <path class="cls-4" d="m1157.95,154.51c-3.48,2.84-4.01,7.96-1.17,11.44,2.84,3.48,7.96,4.01,11.44,1.17,3.48-2.84,4.01-7.96,1.17-11.44-2.84-3.48-7.96-4.01-11.44-1.17Z"/>
          <path class="cls-4" d="m1189.89,132.85c-3.92,2.19-5.33,7.14-3.14,11.06,2.19,3.92,7.14,5.33,11.06,3.14,3.92-2.19,5.33-7.14,3.14-11.06-2.19-3.92-7.14-5.33-11.06-3.14Z"/>
          <path class="cls-4" d="m1225.1,117.07c-4.24,1.47-6.49,6.11-5.02,10.35,1.47,4.24,6.11,6.49,10.35,5.02,4.24-1.47,6.49-6.11,5.02-10.35-1.47-4.24-6.11-6.49-10.35-5.02Z"/>
          <path class="cls-4" d="m1262.52,107.64c-4.43.71-7.45,4.89-6.74,9.32.71,4.44,4.89,7.45,9.32,6.74,4.43-.71,7.45-4.89,6.74-9.32-.71-4.44-4.89-7.45-9.32-6.74Z"/>
          <path class="cls-4" d="m1301.01,104.85c-4.49-.07-8.19,3.52-8.25,8.01-.07,4.49,3.52,8.19,8.01,8.25,4.49.07,8.19-3.52,8.25-8.01.07-4.49-3.52-8.19-8.01-8.25Z"/>
          <path class="cls-4" d="m1332.87,544.79c4.43-.71,7.45-4.89,6.74-9.32-.71-4.44-4.89-7.45-9.32-6.74-4.43.71-7.45,4.89-6.74,9.32.71,4.44,4.89,7.45,9.32,6.74Z"/>
        </g>
        <g>
          <path class="cls-2" d="m1351.87,147.07c-2.1-.64-4.33.55-4.96,2.66-.64,2.1.55,4.33,2.66,4.96,2.1.64,4.33-.55,4.96-2.66.64-2.1-.55-4.33-2.66-4.96Z"/>
          <path class="cls-2" d="m1382.16,159.2c-1.96-.99-4.36-.21-5.35,1.76-.99,1.96-.21,4.36,1.76,5.35,1.96.99,4.36.21,5.35-1.76.99-1.96.21-4.36-1.76-5.35Z"/>
          <path class="cls-2" d="m1409.88,176.4c-1.76-1.32-4.25-.96-5.57.8-1.32,1.76-.96,4.26.8,5.57,1.76,1.32,4.26.96,5.57-.8,1.32-1.76.96-4.25-.8-5.57Z"/>
          <path class="cls-2" d="m1434.19,198.16c-1.5-1.6-4.02-1.68-5.63-.18-1.6,1.5-1.68,4.02-.18,5.63,1.5,1.6,4.02,1.68,5.63.18,1.6-1.5,1.68-4.02.18-5.63Z"/>
          <path class="cls-2" d="m1454.35,223.81c-1.2-1.84-3.67-2.36-5.51-1.15-1.84,1.2-2.36,3.67-1.15,5.51,1.2,1.84,3.67,2.36,5.51,1.15,1.84-1.2,2.36-3.67,1.15-5.51Z"/>
          <path class="cls-2" d="m1469.75,252.57c-.87-2.02-3.2-2.96-5.23-2.09-2.02.87-2.96,3.21-2.09,5.23.87,2.02,3.21,2.96,5.23,2.09s2.96-3.2,2.09-5.23Z"/>
          <path class="cls-2" d="m1479.93,283.56c-.5-2.14-2.64-3.47-4.78-2.97-2.14.5-3.47,2.64-2.97,4.78.5,2.14,2.64,3.47,4.78,2.97,2.14-.5,3.47-2.64,2.97-4.78Z"/>
          <path class="cls-2" d="m1484.57,315.85c-.12-2.2-2-3.88-4.2-3.75-2.2.12-3.88,2-3.75,4.2.12,2.2,2,3.88,4.2,3.75,2.2-.12,3.88-2,3.75-4.2Z"/>
          <path class="cls-2" d="m1483.53,348.46c.26-2.18-1.3-4.16-3.48-4.43-2.18-.26-4.16,1.3-4.43,3.48s1.3,4.16,3.48,4.43c2.18.26,4.16-1.3,4.43-3.48Z"/>
          <path class="cls-2" d="m1476.84,380.39c.64-2.1-.55-4.33-2.66-4.96-2.1-.64-4.33.55-4.96,2.66-.64,2.1.55,4.33,2.66,4.96,2.11.64,4.33-.55,4.96-2.66Z"/>
          <path class="cls-2" d="m1464.71,410.68c.99-1.96.21-4.36-1.76-5.35-1.96-.99-4.36-.21-5.35,1.76-.99,1.96-.21,4.36,1.76,5.35s4.36.21,5.35-1.76Z"/>
          <path class="cls-2" d="m1447.51,438.4c1.32-1.76.96-4.26-.8-5.57-1.76-1.32-4.25-.96-5.57.8-1.32,1.76-.96,4.25.8,5.57,1.76,1.32,4.26.96,5.57-.8Z"/>
          <path class="cls-2" d="m1425.75,462.71c1.6-1.5,1.68-4.02.18-5.63-1.5-1.6-4.02-1.68-5.63-.18-1.6,1.5-1.68,4.02-.18,5.63,1.5,1.6,4.02,1.68,5.63.18Z"/>
          <path class="cls-2" d="m1400.1,482.87c1.84-1.2,2.36-3.67,1.15-5.51-1.2-1.84-3.67-2.36-5.51-1.15-1.84,1.2-2.36,3.67-1.15,5.51,1.2,1.84,3.67,2.36,5.51,1.15Z"/>
          <path class="cls-2" d="m1371.35,498.27c2.02-.87,2.96-3.21,2.09-5.23s-3.21-2.96-5.23-2.09c-2.02.87-2.96,3.2-2.09,5.23.87,2.02,3.21,2.96,5.23,2.09Z"/>
          <path class="cls-2" d="m1340.35,508.45c2.14-.5,3.47-2.64,2.97-4.78-.5-2.14-2.64-3.47-4.78-2.97-2.14.5-3.47,2.64-2.97,4.78.5,2.14,2.64,3.47,4.78,2.97Z"/>
          <path class="cls-2" d="m1308.06,513.09c2.2-.12,3.88-2,3.75-4.2-.12-2.2-2-3.88-4.2-3.75s-3.88,2-3.75,4.2c.12,2.2,2,3.88,4.2,3.75Z"/>
          <path class="cls-2" d="m1275.45,512.05c2.18.26,4.17-1.3,4.43-3.48.26-2.18-1.3-4.16-3.48-4.43-2.18-.26-4.16,1.3-4.43,3.48-.26,2.18,1.3,4.16,3.48,4.43Z"/>
          <path class="cls-2" d="m1243.52,505.36c2.1.64,4.33-.55,4.96-2.66.64-2.1-.55-4.33-2.66-4.96-2.1-.64-4.33.55-4.96,2.66-.64,2.1.55,4.33,2.66,4.96Z"/>
          <path class="cls-2" d="m1213.23,493.23c1.96.99,4.36.21,5.35-1.76.99-1.96.21-4.36-1.76-5.35-1.96-.99-4.36-.21-5.35,1.76-.99,1.96-.21,4.36,1.76,5.35Z"/>
          <path class="cls-2" d="m1185.52,476.03c1.76,1.32,4.25.96,5.57-.8,1.32-1.76.96-4.26-.8-5.57-1.76-1.32-4.26-.96-5.57.8-1.32,1.76-.96,4.25.8,5.57Z"/>
          <path class="cls-2" d="m1195.29,169.56c-1.84,1.2-2.36,3.67-1.15,5.51,1.2,1.84,3.67,2.36,5.51,1.15,1.84-1.2,2.36-3.67,1.15-5.51-1.2-1.84-3.67-2.36-5.51-1.15Z"/>
          <path class="cls-2" d="m1224.05,154.16c-2.02.87-2.96,3.21-2.09,5.23.86,2.02,3.2,2.96,5.23,2.09,2.02-.87,2.96-3.21,2.09-5.23-.87-2.02-3.21-2.96-5.23-2.09Z"/>
          <path class="cls-2" d="m1255.04,143.98c-2.14.5-3.47,2.64-2.97,4.78.5,2.14,2.64,3.47,4.78,2.97,2.14-.5,3.47-2.64,2.97-4.78-.5-2.14-2.64-3.47-4.78-2.97Z"/>
          <path class="cls-2" d="m1287.34,139.35c-2.2.12-3.88,2-3.75,4.2s2,3.88,4.2,3.75c2.2-.12,3.88-2,3.75-4.2-.12-2.2-2-3.88-4.2-3.75Z"/>
          <path class="cls-2" d="m1319.94,140.38c-2.18-.26-4.16,1.3-4.43,3.48-.26,2.18,1.3,4.16,3.48,4.43,2.18.26,4.16-1.3,4.43-3.48.26-2.18-1.3-4.16-3.48-4.43Z"/>
        </g>
        <g>
          <path class="cls-3" d="m1324.97,20.13c-.27,10.84-9.28,19.41-20.12,19.14-10.84-.27-19.41-9.28-19.14-20.12S1294.99-.26,1305.83,0c10.84.27,19.41,9.28,19.14,20.12Z"/>
          <path class="cls-3" d="m1377.71,29.52c-2.15,10.63-12.51,17.51-23.14,15.36-10.63-2.15-17.51-12.51-15.36-23.14,2.15-10.63,12.51-17.51,23.14-15.36,10.63,2.15,17.51,12.51,15.36,23.14Z"/>
          <path class="cls-3" d="m1428.02,47.92c-3.96,10.1-15.36,15.07-25.46,11.11-10.1-3.96-15.07-15.36-11.11-25.46,3.96-10.1,15.36-15.07,25.46-11.11s15.07,15.36,11.11,25.46Z"/>
          <path class="cls-3" d="m1474.36,74.78c-5.66,9.26-17.74,12.17-27,6.52-9.26-5.66-12.17-17.74-6.52-27,5.66-9.26,17.74-12.17,27-6.52,9.26,5.66,12.17,17.74,6.52,27Z"/>
          <path class="cls-3" d="m1515.34,109.27c-7.18,8.13-19.59,8.91-27.72,1.73-8.13-7.18-8.91-19.59-1.73-27.72,7.18-8.13,19.59-8.91,27.72-1.73,8.13,7.18,8.91,19.59,1.73,27.72Z"/>
          <path class="cls-3" d="m1549.71,150.36c-8.48,6.76-20.84,5.37-27.6-3.11-6.76-8.48-5.37-20.84,3.11-27.6,8.48-6.76,20.84-5.37,27.6,3.11,6.76,8.48,5.37,20.84-3.11,27.6Z"/>
          <path class="cls-3" d="m1576.41,196.8c-9.53,5.19-21.45,1.67-26.64-7.85-5.19-9.53-1.67-21.45,7.85-26.64,9.53-5.19,21.45-1.67,26.64,7.85,5.19,9.53,1.67,21.45-7.85,26.64Z"/>
          <path class="cls-3" d="m1594.65,247.16c-10.28,3.45-21.42-2.08-24.87-12.36-3.45-10.28,2.08-21.42,12.36-24.87,10.28-3.45,21.42,2.08,24.87,12.36,3.45,10.28-2.08,21.42-12.36,24.87Z"/>
          <path class="cls-3" d="m1603.87,299.93c-10.73,1.62-20.73-5.77-22.35-16.49-1.62-10.73,5.77-20.73,16.49-22.35,10.73-1.62,20.73,5.77,22.35,16.49,1.62,10.73-5.77,20.73-16.49,22.35Z"/>
          <path class="cls-3" d="m1603.78,353.49c-10.84-.27-19.41-9.28-19.14-20.12.27-10.84,9.28-19.41,20.12-19.14,10.84.27,19.41,9.28,19.14,20.12-.27,10.84-9.28,19.41-20.12,19.14Z"/>
          <path class="cls-3" d="m1594.4,406.23c-10.63-2.15-17.51-12.51-15.36-23.14,2.15-10.63,12.51-17.51,23.14-15.36,10.63,2.15,17.51,12.51,15.36,23.14-2.15,10.63-12.51,17.51-23.14,15.36Z"/>
          <path class="cls-3" d="m1575.99,456.54c-10.1-3.96-15.07-15.36-11.11-25.46,3.96-10.1,15.36-15.07,25.46-11.11,10.1,3.96,15.07,15.36,11.11,25.46-3.96,10.1-15.36,15.07-25.46,11.11Z"/>
          <path class="cls-3" d="m1549.14,502.88c-9.26-5.66-12.17-17.74-6.52-27,5.66-9.26,17.74-12.17,27-6.52,9.26,5.66,12.17,17.74,6.52,27-5.66,9.26-17.74,12.17-27,6.52Z"/>
          <path class="cls-3" d="m1514.64,543.86c-8.13-7.18-8.91-19.59-1.73-27.72,7.18-8.13,19.59-8.91,27.72-1.73,8.13,7.18,8.91,19.59,1.73,27.72-7.18,8.13-19.59,8.91-27.72,1.73Z"/>
          <path class="cls-3" d="m1473.55,578.23c-6.76-8.48-5.37-20.84,3.11-27.6,8.48-6.76,20.84-5.37,27.6,3.11,6.76,8.48,5.37,20.84-3.11,27.6-8.48,6.76-20.84,5.37-27.6-3.11Z"/>
          <path class="cls-3" d="m1427.12,604.93c-5.19-9.53-1.67-21.45,7.86-26.64,9.53-5.19,21.45-1.67,26.64,7.86,5.19,9.53,1.67,21.45-7.86,26.64-9.53,5.19-21.45,1.67-26.64-7.86Z"/>
          <path class="cls-3" d="m1376.75,623.17c-3.45-10.28,2.08-21.42,12.36-24.87,10.28-3.45,21.42,2.08,24.87,12.36,3.45,10.28-2.08,21.42-12.36,24.87s-21.42-2.08-24.87-12.36Z"/>
          <path class="cls-3" d="m1323.98,632.39c-1.62-10.73,5.77-20.73,16.49-22.35,10.73-1.62,20.73,5.77,22.35,16.49,1.62,10.73-5.77,20.73-16.49,22.35-10.73,1.62-20.73-5.77-22.35-16.49Z"/>
          <path class="cls-3" d="m1270.42,632.3c.27-10.84,9.28-19.41,20.12-19.14,10.84.27,19.41,9.28,19.14,20.12-.27,10.84-9.28,19.41-20.12,19.14-10.84-.27-19.41-9.28-19.14-20.12Z"/>
          <path class="cls-3" d="m1217.68,622.92c2.15-10.63,12.51-17.51,23.14-15.36,10.63,2.15,17.51,12.51,15.36,23.14-2.15,10.63-12.51,17.51-23.14,15.36-10.63-2.15-17.51-12.51-15.36-23.14Z"/>
          <path class="cls-3" d="m1167.38,604.51c3.96-10.1,15.36-15.07,25.46-11.11,10.1,3.96,15.07,15.36,11.11,25.46-3.96,10.1-15.36,15.07-25.46,11.11-10.1-3.96-15.07-15.36-11.11-25.46Z"/>
          <path class="cls-3" d="m1121.03,577.66c5.66-9.26,17.74-12.17,27-6.52,9.26,5.66,12.17,17.74,6.52,27-5.66,9.26-17.74,12.17-27,6.52-9.26-5.66-12.17-17.74-6.52-27Z"/>
          <path class="cls-3" d="m1080.05,543.16c7.18-8.13,19.59-8.91,27.72-1.73,8.13,7.18,8.91,19.59,1.73,27.72-7.18,8.13-19.59,8.91-27.72,1.73-8.13-7.18-8.91-19.59-1.73-27.72Z"/>
          <path class="cls-3" d="m1045.69,502.07c8.48-6.76,20.84-5.37,27.6,3.11,6.76,8.48,5.37,20.84-3.11,27.6-8.48,6.76-20.84,5.37-27.6-3.11-6.76-8.48-5.37-20.84,3.11-27.6Z"/>
          <path class="cls-3" d="m1080.75,108.57c8.13,7.18,8.91,19.59,1.73,27.72-7.18,8.13-19.59,8.91-27.72,1.73-8.13-7.18-8.91-19.59-1.73-27.72,7.18-8.13,19.59-8.91,27.72-1.73Z"/>
          <path class="cls-3" d="m1121.84,74.21c6.76,8.48,5.37,20.84-3.11,27.6-8.48,6.76-20.84,5.37-27.6-3.11-6.76-8.48-5.37-20.84,3.11-27.6,8.48-6.76,20.84-5.37,27.6,3.11Z"/>
          <path class="cls-3" d="m1168.28,47.5c5.19,9.53,1.67,21.45-7.86,26.64-9.53,5.19-21.45,1.67-26.64-7.86-5.19-9.53-1.67-21.45,7.85-26.64,9.53-5.19,21.45-1.67,26.64,7.86Z"/>
          <path class="cls-3" d="m1218.64,29.26c3.45,10.28-2.08,21.42-12.36,24.87-10.28,3.45-21.42-2.08-24.87-12.36-3.45-10.28,2.08-21.42,12.36-24.87,10.28-3.45,21.42,2.08,24.87,12.36Z"/>
          <path class="cls-3" d="m1271.41,20.04c1.62,10.73-5.77,20.73-16.49,22.35-10.73,1.62-20.73-5.77-22.35-16.49-1.62-10.73,5.77-20.73,16.49-22.35,10.73-1.62,20.73,5.77,22.35,16.49Z"/>
        </g>
      </g>
      <circle class="cls-2" cx="1297.81" cy="324.07" r="160.42"/>
    </g>
  </g>
</svg>